<?xml version="1.0" standalone="no"?>
<!DOCTYPE svg PUBLIC "-//W3C//DTD SVG 20010904//EN"
 "http://www.w3.org/TR/2001/REC-SVG-20010904/DTD/svg10.dtd">
<svg version="1.0" xmlns="http://www.w3.org/2000/svg"
 width="24" height="24" viewBox="0 0 512.000000 512.000000"
 preserveAspectRatio="xMidYMid meet">

<g transform="translate(0.000000,512.000000) scale(0.100000,-0.100000)"
fill="#000000" stroke="none">
<path d="M2070 4936 l0 -186 -592 -2 -593 -3 -3 -2182 -2 -2183 595 0 595 0 0
-191 0 -191 23 5 c12 3 477 87 1032 187 556 99 1034 185 1063 191 l52 10 0
2170 c0 1193 -3 2169 -7 2169 -9 0 -2113 380 -2140 387 l-23 5 0 -186z m0
-2376 l0 -1830 -415 0 -415 0 0 1830 0 1830 415 0 415 0 0 -1830z m417 150
c47 -28 67 -73 67 -150 0 -77 -20 -122 -67 -150 -45 -28 -89 -25 -128 7 -40
34 -59 79 -59 143 0 64 19 109 59 143 39 32 83 35 128 7z"/>
</g>
</svg>
